<svg xmlns="http://www.w3.org/2000/svg">
<defs>
<font horiz-adv-x="882" ><font-face
    font-family="ALTERED CARBON"
    units-per-em="1000"
    panose-1="2 0 0 0 0 0 0 0 0 0"
    ascent="827"
    descent="-245"
    alphabetic="0" />
<missing-glyph horiz-adv-x="977" d="M50 748L488 1000L927 748V252L488 0L50 252V748ZM837 292V708L488 901L141 708V292L488 99L837 292ZM437 211Q437 211 437 211T437 211Q438 211 438 211T437 211ZM531 211Q530 211 530 211T531 211Q531 211 531 211T531 211ZM610
293L635 331Q635 331 637 334T638 340L619 449L566 474Q565 475 562 477T556 481H560L616 469H619Q622 475 624 475T627 475T629 472T630 469L640 441L653 351Q654 352 657 353T662 356Q664 351 662 345T659 337Q658 333 655 327T651 319L626 286L574 238L532 210L610
293ZM420 221L369 261Q368 263 364 267T354 276T345 286T339 293Q337 295 334 300T327 310T320 321T316 329Q313 335 310 342T308 356Q310 355 313 354T318 351L332 441Q333 448 337 459T346 476Q347 477 347 477T349 475Q349 475 350 473T352 469H355L411 481H415Q413
479 410 477T405 474L352 449L333 338L371 282L437 212Q435 212 430 215T420 221ZM532 214Q533 214 533 214T532 213Q531 213 531 213T532 214ZM574 236Q574 236 574 236T574 235Q573 235 573 235T574 236ZM294 253Q293 254 291 257T286 263T281 270T277 274L223
404L214 438V456Q216 456 220 452T225 449L265 503L293 529Q295 526 295 521T300 515L395 492L392 490H369L291 498L241 438Q241 437 241 432T241 424Q241 423 242 416T244 404Q245 403 246 402T245 400L306 244V240Q305 241 300 246T294 253ZM724 395Q724 395
725 398T726 406T728 416T730 424Q730 427 731 431T731 436L680 498L600 490H579L576 492L671 515Q675 516 675 521T677 529L735 467L746 449Q747 448 748 449T751 451T754 453T757 456V438L709 304Q703 287 691 270T665 240L724 395ZM448 259Q437 262 425 271T403
294T387 321T380 348V387Q380 388 381 390T383 397T385 404T387 411Q395 435 413 452T456 479Q451 481 444 499T444 532T451 548Q441 562 444 569T462 583Q457 568 457 564T458 559T466 560T480 563Q495 565 509 557Q514 559 514 562T513 569T510 576T509 583Q510

<glyph unicode=" " glyph-name="space" horiz-adv-x="1001" />
<glyph unicode="!" glyph-name="exclam" horiz-adv-x="296" d="M50 167L148 224L246 167V57L148 0L50 57V167ZM50 970Q50 1000 80 1000H216Q246 1000 246 970L220 329Q220 299 190 299H110Q80 299 80 329L50 970Z" />
<glyph unicode="%" glyph-name="percent" horiz-adv-x="1115" d="M697 967Q711 1000 743 1000H827Q843 1000 843 989Q843 982 837 970L415 30Q408 15 399 8T374 0H289Q271 0 271 12Q271 19 275 27L697 967ZM718 296L891 396L1065 296V100L891 0L718 100V296ZM50
896L223 996L397 896V700L223 600L50 700V896Z" />
<glyph unicode="&amp;" glyph-name="ampersand" horiz-adv-x="977" d="M50 748L488 1000L927 748V252L488 0L50 252V748ZM837 292V708L488 901L141 708V292L488 99L837 292ZM317 766Q317 776 327 776H429Q439 776 439 766V738Q439 728 429 728H375Q364 728 364
718V644Q364 619 374 598T401 560T441 535T488 525Q513 526 535 536T574 564T601 604T613 652V766Q613 776 623 776H651Q661 776 661 766V647Q661 632 660 619T653 592Q642 563 622 539T575 498Q614 477 637 439T661 352V234Q661 224 651 224H548Q537 224 537 234V262Q537
271 548 271H603Q613 271 613 282V356Q613 380 603 401T576 439T536 464T488 475Q464 474 442 464T404 436T377 396T365 348V234Q365 224 355 224H327Q317 224 317 234V353Q317 379 326 408Q336 437 355 460T401 498Q363 522 340 561T317 648V766Z" />
<glyph unicode="&apos;" glyph-name="quotesingle" horiz-adv-x="296" d="M50 944L148 1001L246 944V719L50 834V944Z" />
<glyph unicode="(" glyph-name="parenleft" horiz-adv-x="977" d="M50 748L488 1000L927 748V252L488 0L50 252V748ZM488 901L141 708V292L488 99V901Z" />
<glyph unicode=")" glyph-name="parenright" horiz-adv-x="977" d="M489 99L836 292V708L489 901V99ZM927 252L489 0L50 252V748L489 1000L927 748V252Z" />
<glyph unicode="*" glyph-name="asterisk" horiz-adv-x="1050" d="M441 3Q442 3 442 3T441 2Q440 2 440 2T441 3ZM604 3Q605 3 605 3T604 2Q603 2 603 2T604 3ZM742 146L786 212Q787 213 790 218T792 228L759 420L666 463Q664 465 658 468T648 475H656L754 455H759Q764
465 767 466T773 465T777 459T778 455L795 405L818 248Q820 249 826 251T834 256Q837 248 834 238T828 224Q826 217 821 206T814 192L771 134L679 50L607 1L742 146ZM411 20L322 91Q319 93 312 100T296 116T280 133T269 146Q266 150 260 158T247 177T235 196T228
209Q224 219 219 231T214 256Q218 254 224 252T232 248L256 405Q258 417 265 437T281 467Q282 468 283 467T286 465Q287 464 289 460T292 455H296L394 475H402Q398 471 392 468T384 463L292 420L258 225L324 127L440 5Q437 5 427 11T411 20ZM607 8Q608 8 608 7T607
6Q605 6 605 7T607 8ZM679 47Q680 47 680 46T679 45Q678 45 678 46T679 47ZM190 77Q188 78 184 83T175 95T166 106T161 113L65 341L50 400V431Q54 431 60 424T69 420L140 513L188 559Q192 553 193 545T201 535L367 494L362 491H322L185 505L98 400Q97 398 97 389T98
375Q98 373 100 361T103 341Q104 339 105 337T105 333L211 60V54Q209 56 201 64T190 77ZM942 324Q942 325 943 331T946 345T949 361T952 375Q953 380 954 387T954 397L866 505L726 491H688L683 494L849 535Q856 537 857 545T860 559L962 450L981 420Q982 418 984
419T990 423T995 427T1000 431V400L916 165Q906 136 885 106T839 54L942 324ZM460 86Q440 92 419 109T380 148T352 195T341 243V311Q341 312 342 317T345 328T349 341T352 352Q367 395 399 425T474 472Q465 475 452 506T452 565T465 593Q448 616 454 629T484 653Q476
628 475 620T478 610T492 613T515 619Q541 622 566 608Q574 611 574 617T573 629T568 642T566 653Q568 652 576 647T589 643Q601 630 598 618T585 593Q602 562 601 529T572 474Q582 468 593 465T615 455Q617 454 625 448T634 441Q635 441 639 439Q664 416 681 389T707
328Q717 286 711 245T683 169T629 109T553 77Q550 76 542 76T526 75T510 75T499 77Q498 77 483 80T460 86ZM756 116Q757 116 757 115T756 114Q755 114 755 115T756 116ZM775 206Q777 206 777 205T775 204Q774 204 774 205T775 206ZM180 591Q178 591 177 587T175
580T172 576T165 585Q160 595 156 604T149 624Q143 648 138 676T134 731H117L258 1000V996L165 749V720Q165 717 165 710T167 697T169 684T170 677Q171 671 173 663T177 646T180 632T182 626L185 624Q189 622 200 617T225 606T249 595T264 587Q266 586 270 583T280
577T290 572T296 568Q297 568 301 566L388 503H384L180 591ZM790 588L866 624Q868 626 869 632T873 646T877 662T880 677Q880 678 881 684T883 696T884 710T885 720V749L800 969Q798 971 796 981T792 996V1000L875 843Q878 841 877 839L931 735V730H916L906 641Q906
638 902 625T894 607Q893 604 889 594T882 581Q882 580 880 579T877 576Q876 576 876 577Q875 579 875 579Q874 581 873 585T870 591L664 503L667 508L790 588ZM724 624Q726 625 730 629T732 636L675 739Q674 739 673 740T673 743L619 856L604 907L645 849Q647
845 699 766Q698 767 695 766T690 764V760L766 629Q768 629 770 622T773 610Q769 608 762 611T752 610L634 508L629 505L724 624ZM298 610Q295 614 288 611T277 608Q278 615 280 622T283 629L360 762Q358 764 355 765T350 767L347 769L443 905L424 839L318 636Q317
634 318 632T320 629L407 526Q408 523 412 518T419 508Q415 508 413 510T409 513L298 610ZM811 565Q813 565 813 564T811 563Q810 563 810 564T811 565ZM379 817Q381 817 381 817T379 816Q378 816 378 816T379 817Z" />
<glyph unicode="+" glyph-name="plus" horiz-adv-x="600" d="M370 565H520Q550 565 550 535V455Q550 425 520 425H370V277Q370 247 340 247H260Q230 247 230 277V425H80Q50 425 50 455V535Q50 565 80 565H230V717Q230 747 260 747H340Q370 747 370 717V565Z" />
<glyph unicode="," glyph-name="comma" horiz-adv-x="296" d="M50 167L148 224L246 167V-58L50 57V167Z" />
<glyph unicode="-" glyph-name="hyphen" horiz-adv-x="600" d="M520 565Q550 565 550 535V455Q550 425 520 425H80Q50 425 50 455V535Q50 565 80 565H520Z" />
<glyph unicode="." glyph-name="period" horiz-adv-x="296" d="M50 167L148 224L246 167V57L148 0L50 57V167Z" />
<glyph unicode="/" glyph-name="slash" horiz-adv-x="672" d="M476 967Q490 1000 522 1000H606Q622 1000 622 989Q622 982 616 970L194 30Q187 15 178 8T153 0H68Q50 0 50 12Q50 19 54 27L476 967Z" />
<glyph unicode="0" glyph-name="zero" horiz-adv-x="833" />
<glyph unicode="1" glyph-name="one" horiz-adv-x="833" />
<glyph unicode="2" glyph-name="two" horiz-adv-x="833" />
<glyph unicode="3" glyph-name="three" horiz-adv-x="833" />
<glyph unicode="4" glyph-name="four" horiz-adv-x="833" />
<glyph unicode="5" glyph-name="five" horiz-adv-x="833" />
<glyph unicode="6" glyph-name="six" horiz-adv-x="833" />
<glyph unicode="7" glyph-name="seven" horiz-adv-x="833" />
<glyph unicode="8" glyph-name="eight" horiz-adv-x="833" />
<glyph unicode="9" glyph-name="nine" horiz-adv-x="833" />
<glyph unicode="@" glyph-name="at" horiz-adv-x="977" d="M50 748L488 1000L927 748V252L488 0L50 252V748ZM837 292V708L488 901L141 708V292L488 99L837 292ZM488 177L208 332V668L488 823L770 668V332L488 177Z" />
<glyph unicode="A" glyph-name="A" horiz-adv-x="1124" d="M479 973Q490 1000 521 1000H602Q633 1000 644 973L1070 27Q1081 0 1052 0H971Q940 0 929 27L574 833Q562 861 550 833L194 27Q183 0 152 0H72Q43 0 54 27L479 973Z" />
<glyph unicode="B" glyph-name="B" horiz-adv-x="898" d="M587 140Q650 151 680 184T711 280Q711 348 671 384T565 425H80Q50 425 50 455V535Q50 565 80 565H571Q635 565 671 600T712 713Q711 738 704 762T681 806T640 841T579 860H80Q50 860 50 890V970Q50 1000
80 1000H578Q634 1000 683 977T769 914T827 824T848 718Q848 653 817 596T738 499Q791 459 819 401T848 277Q848 221 827 171T769 83T683 23T577 0H80Q50 0 50 30V110Q50 140 80 140H587Z" />
<glyph unicode="C" glyph-name="C" horiz-adv-x="974" d="M894 1000Q924 1000 924 970V672Q924 642 894 642H814Q784 642 784 672V830Q784 860 754 860H540Q466 860 403 832T292 755T217 641T190 500Q190 425 220 362T302 251T420 174T560 140H894Q924 140 924
110V30Q924 0 894 0H547Q465 0 387 27Q312 53 250 100T143 210T75 346T50 500Q50 604 89 695T197 854T357 961T552 1000H894Z" />
<glyph unicode="D" glyph-name="D" horiz-adv-x="974" d="M422 1000Q525 1000 616 961T776 855T884 696T924 500Q924 420 900 346T831 210T725 101T587 27Q509 0 427 0H80Q50 0 50 30V110Q50 140 80 140H414Q487 145 554 173T672 249T753 361T784 500Q784 574
757 639T683 754T571 831T434 860H220Q190 860 190 830V672Q190 642 160 642H80Q50 642 50 672V970Q50 1000 80 1000H422Z" />
<glyph unicode="E" glyph-name="E" horiz-adv-x="835" d="M755 1000Q785 1000 785 970V890Q785 860 755 860H221Q191 860 191 830V595Q191 565 221 565H686Q716 565 716 535V455Q716 425 686 425H221Q191 425 191 395V170Q191 140 221 140H755Q785 140 785 110V30Q785
0 755 0H80Q50 0 50 30V970Q50 1000 80 1000H755Z" />
<glyph unicode="F" glyph-name="F" horiz-adv-x="835" d="M755 1000Q785 1000 785 970V890Q785 860 755 860H221Q191 860 191 830V595Q191 565 221 565H686Q716 565 716 535V455Q716 425 686 425H220Q190 425 190 395V30Q190 0 160 0H80Q50 0 50 30V970Q50 1000
80 1000H755Z" />
<glyph unicode="G" glyph-name="G" horiz-adv-x="833" />
<glyph unicode="H" glyph-name="H" horiz-adv-x="910" d="M160 1000Q190 1000 190 970V595Q190 565 220 565H690Q720 565 720 595V970Q720 1000 750 1000H830Q860 1000 860 970V30Q860 0 830 0H750Q720 0 720 30V395Q720 425 690 425H220Q190 425 190 395V30Q190
0 160 0H80Q50 0 50 30V970Q50 1000 80 1000H160Z" />
<glyph unicode="I" glyph-name="I" horiz-adv-x="240" d="M50 970Q50 1000 80 1000H160Q190 1000 190 970V30Q190 0 160 0H80Q50 0 50 30V970Z" />
<glyph unicode="J" glyph-name="J" horiz-adv-x="833" />
<glyph unicode="K" glyph-name="K" horiz-adv-x="833" />
<glyph unicode="L" glyph-name="L" horiz-adv-x="835" d="M80 0Q50 0 50 30V970Q50 1000 80 1000H161Q191 1000 191 970V170Q191 140 221 140H755Q785 140 785 110V30Q785 0 755 0H80Z" />
<glyph unicode="M" glyph-name="M" horiz-adv-x="833" />
<glyph unicode="N" glyph-name="N" horiz-adv-x="908" d="M161 1000Q177 1000 193 995T218 975L701 243Q718 217 718 248V970Q718 1000 748 1000H828Q858 1000 858 970V30Q858 0 828 0H758Q742 0 726 5T701 25L207 757Q190 782 190 752V30Q190 0 160 0H80Q50 0
50 30V970Q50 1000 80 1000H161Z" />
<glyph unicode="O" glyph-name="O" horiz-adv-x="1003" d="M50 732Q50 762 77 778L474 1012Q490 1020 501 1020Q514 1020 528 1012L927 778Q953 762 953 732V268Q953 238 927 222L528 -12Q521 -17 514 -18T501 -20Q487 -20 474 -12L77 222Q50 238 50 268V732ZM785
288Q813 305 813 337V651Q813 669 807 680T785 701L529 852Q515 860 501 860Q488 860 472 852L218 701Q204 691 197 680T190 651V337Q190 320 197 309T218 288L472 148Q485 140 501 140Q517 140 529 148L785 288Z" />
<glyph unicode="P" glyph-name="P" horiz-adv-x="833" />
<glyph unicode="Q" glyph-name="Q" horiz-adv-x="833" />
<glyph unicode="R" glyph-name="R" horiz-adv-x="898" d="M832 27Q843 0 814 0H723Q692 0 681 27L432 425H220Q190 425 190 395V30Q190 0 160 0H80Q50 0 50 30V531Q50 547 62 556T90 565H574Q634 569 669 610T709 712Q707 741 697 767T669 813T628 845T575 860H80Q50
860 50 890V970Q50 1000 80 1000H578Q635 1000 684 976T770 911T827 818T848 711Q848 655 828 605T771 517T687 454T583 425L832 27Z" />
<glyph unicode="S" glyph-name="S" horiz-adv-x="833" />
<glyph unicode="T" glyph-name="T" horiz-adv-x="836" d="M80 860Q50 860 50 890V970Q50 1000 80 1000H756Q786 1000 786 970V890Q786 860 756 860H499Q469 860 469 830V30Q469 0 439 0H359Q329 0 329 30V830Q329 860 299 860H80Z" />
<glyph unicode="U" glyph-name="U" horiz-adv-x="833" />
<glyph unicode="V" glyph-name="V" horiz-adv-x="833" />
<glyph unicode="W" glyph-name="W" horiz-adv-x="833" />
<glyph unicode="X" glyph-name="X" horiz-adv-x="833" />
<glyph unicode="Y" glyph-name="Y" horiz-adv-x="833" />
<glyph unicode="Z" glyph-name="Z" horiz-adv-x="833" />
<glyph unicode="\" glyph-name="backslash" horiz-adv-x="672" d="M618 27Q622 19 622 12Q622 0 604 0H519Q503 0 494 7T478 30L56 970Q50 982 50 989Q50 1000 66 1000H150Q182 1000 196 967L618 27Z" />
<glyph unicode="a" glyph-name="a" horiz-adv-x="1124" d="M479 973Q490 1000 521 1000H602Q633 1000 644 973L1070 27Q1081 0 1052 0H971Q940 0 929 27L815 285H308L194 27Q183 0 152 0H72Q43 0 54 27L479 973ZM370 425H753L574 833Q562 861 550 833L370 425Z" />
<glyph unicode="b" glyph-name="b" horiz-adv-x="898" d="M50 970Q50 1000 80 1000H578Q634 1000 683 977T769 914T827 824T848 718Q848 653 817 596T738 499Q791 459 819 401T848 277Q848 221 827 171T769 83T683 23T577 0H80Q50 0 50 30V970ZM190 860V565H571Q635
565 670 600T710 713Q709 738 702 762T680 806T640 841T579 860H190ZM190 425V140H587Q650 151 680 184T710 280Q710 348 671 384T565 425H190Z" />
<glyph unicode="c" glyph-name="c" horiz-adv-x="974" d="M894 1000Q924 1000 924 970V892Q924 863 894 860H540Q466 860 403 832T292 755T217 641T190 500Q190 425 220 362T302 251T420 174T560 140H894Q924 140 924 110V30Q924 0 894 0H547Q465 0 387 27Q312
53 250 100T143 210T75 346T50 500Q50 604 89 695T197 854T357 961T552 1000H894Z" />
<glyph unicode="d" glyph-name="d" horiz-adv-x="974" d="M50 970Q50 1000 80 1000H422Q525 1000 616 961T776 855T884 696T924 500Q924 420 900 346T831 210T725 101T587 27Q509 0 427 0H80Q50 0 50 30V970ZM190 140H414Q487 145 554 173T672 249T753 361T784
500Q784 574 757 639T683 754T571 831T434 860H220Q191 860 190 834V830V140Z" />
<glyph unicode="e" glyph-name="e" horiz-adv-x="835" d="M755 1000Q785 1000 785 970V890Q785 860 755 860H221Q191 860 191 830V595Q191 565 221 565H686Q716 565 716 535V455Q716 425 686 425H221Q191 425 191 395V170Q191 140 221 140H755Q785 140 785 110V30Q785
0 755 0H80Q50 0 50 30V970Q50 1000 80 1000H755Z" />
<glyph unicode="f" glyph-name="f" horiz-adv-x="835" d="M755 1000Q785 1000 785 970V890Q785 860 755 860H221Q191 860 191 830V595Q191 565 221 565H686Q716 565 716 535V455Q716 425 686 425H220Q190 425 190 395V30Q190 0 160 0H80Q50 0 50 30V970Q50 1000
80 1000H755Z" />
<glyph unicode="g" glyph-name="g" horiz-adv-x="833" />
<glyph unicode="h" glyph-name="h" horiz-adv-x="910" d="M160 1000Q190 1000 190 970V595Q190 565 220 565H690Q720 565 720 595V970Q720 1000 750 1000H830Q860 1000 860 970V30Q860 0 830 0H750Q720 0 720 30V395Q720 425 690 425H220Q190 425 190 395V30Q190
0 160 0H80Q50 0 50 30V970Q50 1000 80 1000H160Z" />
<glyph unicode="i" glyph-name="i" horiz-adv-x="240" d="M50 970Q50 1000 80 1000H160Q190 1000 190 970V30Q190 0 160 0H80Q50 0 50 30V970Z" />
<glyph unicode="j" glyph-name="j" horiz-adv-x="833" />
<glyph unicode="k" glyph-name="k" horiz-adv-x="833" />
<glyph unicode="l" glyph-name="l" horiz-adv-x="835" d="M80 0Q50 0 50 30V970Q50 1000 80 1000H161Q191 1000 191 970V170Q191 140 221 140H755Q785 140 785 110V30Q785 0 755 0H80Z" />
<glyph unicode="m" glyph-name="m" horiz-adv-x="833" />
<glyph unicode="n" glyph-name="n" horiz-adv-x="908" d="M161 1000Q177 1000 193 995T218 975L701 233Q718 207 718 238V970Q718 1000 748 1000H828Q858 1000 858 970V30Q858 0 828 0H758Q742 0 726 5T701 25L207 767Q190 792 190 762V30Q190 0 160 0H80Q50 0
50 30V970Q50 1000 80 1000H161Z" />
<glyph unicode="o" glyph-name="o" horiz-adv-x="1099" d="M50 500Q50 604 89 695T196 854T355 961T550 1000Q653 1000 744 961T903 854T1010 695T1049 500Q1049 396 1010 305T903 147T744 40T550 1Q446 1 355 40T197 146T90 305T50 500ZM189 501Q189 426 217
361T294 247T408 170T548 142Q623 142 688 170T802 246T879 360T907 501Q907 576 879 641T802 755T688 832T548 860Q474 860 409 832T294 755T217 641T189 501Z" />
<glyph unicode="p" glyph-name="p" horiz-adv-x="833" />
<glyph unicode="q" glyph-name="q" horiz-adv-x="833" />
<glyph unicode="r" glyph-name="r" horiz-adv-x="898" d="M50 970Q50 1000 80 1000H578Q635 1000 684 976T770 911T827 818T848 711Q848 655 828 605T771 517T687 454T583 425L832 27Q843 0 814 0H723Q692 0 681 27L432 425H220Q190 425 190 395V30Q190 0 160
0H80Q50 0 50 30V970ZM190 860V565H573Q633 569 668 610T709 712Q707 741 697 767T668 813T626 845T573 860H190Z" />
<glyph unicode="s" glyph-name="s" horiz-adv-x="833" />
<glyph unicode="t" glyph-name="t" horiz-adv-x="836" d="M80 860Q50 860 50 890V970Q50 1000 80 1000H756Q786 1000 786 970V890Q786 860 756 860H499Q469 860 469 830V30Q469 0 439 0H359Q329 0 329 30V830Q329 860 299 860H80Z" />
<glyph unicode="u" glyph-name="u" horiz-adv-x="833" />
<glyph unicode="v" glyph-name="v" horiz-adv-x="833" />
<glyph unicode="w" glyph-name="w" horiz-adv-x="833" />
<glyph unicode="x" glyph-name="x" horiz-adv-x="833" />
<glyph unicode="y" glyph-name="y" horiz-adv-x="833" />
<glyph unicode="z" glyph-name="z" horiz-adv-x="833" />
</font>
</defs>
</svg>
